<svg width="24" height="24" viewBox="0 0 24 24" fill="none" xmlns="http://www.w3.org/2000/svg">
<path d="M12 7.49979C10.5039 7.49979 3 4.51919 3 11.9998" stroke="#ABF98F" stroke-width="1.49989" stroke-linecap="round" stroke-linejoin="round"/>
<path d="M3 12C3 19.4806 7.50388 22.5 9 22.5C10.4961 22.5 10.5039 21 12 21" stroke="#ABF98F" stroke-width="1.49989" stroke-linecap="round" stroke-linejoin="round"/>
<path d="M12 7.49979C13.4961 7.49979 21 4.51919 21 11.9998" stroke="#ABF98F" stroke-width="1.49989" stroke-linecap="round" stroke-linejoin="round"/>
<path d="M21.0078 11.9883C21.0078 19.4689 16.4961 22.4999 15 22.4999C13.5039 22.4999 13.4961 20.9999 12 20.9999" stroke="#ABF98F" stroke-width="1.49989" stroke-linecap="round" stroke-linejoin="round"/>
<path d="M12 7.5C12 3.01164 9 1.5 9 1.5" stroke="#ABF98F" stroke-width="1.49989" stroke-linecap="round" stroke-linejoin="round"/>
<path d="M12 7.5C12 1.51552 15.0039 2.99612 16.5 1.5" stroke="#ABF98F" stroke-width="1.49989" stroke-linecap="round" stroke-linejoin="round"/>
<path d="M12 7.5C16.4884 6.00388 17.9961 4.49224 16.5 1.5" stroke="#ABF98F" stroke-width="1.49989" stroke-linecap="round" stroke-linejoin="round"/>
</svg>
