<svg width="24" height="24" viewBox="0 0 24 24" fill="none" xmlns="http://www.w3.org/2000/svg">
<path d="M9 12H9.01M15 12H15.01M10 16C10.5 16.3 11.2 16.5 12 16.5C12.8 16.5 13.5 16.3 14 16" stroke="#FFCAAB" stroke-width="2" stroke-linecap="round" stroke-linejoin="round"/>
<path d="M18.9985 6.3C19.9045 7.43567 20.5221 8.77378 20.7985 10.2C21.1367 10.3638 21.4218 10.6195 21.6214 10.9378C21.8209 11.2562 21.9268 11.6243 21.9268 12C21.9268 12.3757 21.8209 12.7438 21.6214 13.0622C21.4218 13.3805 21.1367 13.6362 20.7985 13.8C20.3668 15.8135 19.2577 17.618 17.6562 18.9125C16.0547 20.207 14.0578 20.9132 11.9985 20.9132C9.93929 20.9132 7.94232 20.207 6.34085 18.9125C4.73937 17.618 3.63024 15.8135 3.19853 13.8C2.86039 13.6362 2.57522 13.3805 2.37568 13.0622C2.17614 12.7438 2.07031 12.3757 2.07031 12C2.07031 11.6243 2.17614 11.2562 2.37568 10.9378C2.57522 10.6195 2.86039 10.3638 3.19853 10.2C3.6128 8.1705 4.71443 6.34602 6.31756 5.03437C7.92069 3.72271 9.92719 3.00418 11.9985 3C13.9985 3 15.4985 4.1 15.4985 5.5C15.4985 6.9 14.5985 8 13.4985 8C12.6985 8 11.9985 7.6 11.9985 7" stroke="#FFCAAB" stroke-width="2" stroke-linecap="round" stroke-linejoin="round"/>
</svg>
