<svg width="24" height="24" viewBox="0 0 24 24" fill="none" xmlns="http://www.w3.org/2000/svg">
<path d="M4.012 11.5H7.477C7.41567 10.7133 7.211 9.95167 6.863 9.215C6.51633 8.47967 6.06833 7.83733 5.519 7.288C5.07833 7.88733 4.72833 8.541 4.469 9.249C4.20967 9.957 4.058 10.7073 4.012 11.5ZM16.522 11.5H19.987C19.9423 10.72 19.7903 9.97933 19.531 9.278C19.271 8.576 18.9207 7.92567 18.48 7.327C17.8927 7.88833 17.435 8.52733 17.107 9.244C16.779 9.96067 16.584 10.7127 16.522 11.5ZM5.52 16.673C6.06867 16.1117 6.51667 15.4727 6.864 14.756C7.21133 14.0393 7.416 13.2873 7.478 12.5H4.012C4.06933 13.292 4.22467 14.036 4.478 14.732C4.73133 15.4273 5.07933 16.0743 5.52 16.673ZM18.481 16.673C18.9217 16.0743 19.2717 15.4243 19.531 14.723C19.791 14.0203 19.9433 13.2793 19.988 12.5H16.523C16.5843 13.2867 16.7793 14.0387 17.108 14.756C17.4367 15.4733 17.8943 16.1123 18.481 16.673ZM8.488 11.5H11.5V4.012C10.45 4.08067 9.46567 4.336 8.547 4.778C7.62833 5.21933 6.83067 5.80867 6.154 6.546C6.82933 7.218 7.37 7.974 7.776 8.814C8.182 9.65467 8.41933 10.55 8.488 11.5ZM12.5 11.5H15.512C15.5807 10.55 15.8147 9.64833 16.214 8.795C16.614 7.94167 17.158 7.192 17.846 6.546C17.1693 5.80867 16.3717 5.21933 15.453 4.778C14.5343 4.33667 13.55 4.08133 12.5 4.012V11.5ZM11.5 19.988V12.5H8.488C8.41933 13.4753 8.18533 14.377 7.786 15.205C7.386 16.0323 6.842 16.769 6.154 17.415C6.83067 18.1523 7.622 18.7483 8.528 19.203C9.434 19.6577 10.4247 19.9193 11.5 19.988ZM12.5 19.988C13.55 19.9193 14.5343 19.664 15.453 19.222C16.3717 18.7807 17.1693 18.1913 17.846 17.454C17.1573 16.8073 16.6133 16.064 16.214 15.224C15.8147 14.384 15.5807 13.476 15.512 12.5H12.5V19.988ZM12 21C10.758 21 9.58934 20.7633 8.494 20.29C7.39867 19.8167 6.44633 19.1743 5.637 18.363C4.82767 17.5517 4.18567 16.5993 3.711 15.506C3.23633 14.4127 2.99933 13.244 3 12C3.00067 10.756 3.23733 9.58733 3.71 8.494C4.18267 7.40067 4.825 6.44833 5.637 5.637C6.449 4.82567 7.40134 4.18333 8.494 3.71C9.58667 3.23667 10.7553 3 12 3C13.2447 3 14.4133 3.23667 15.506 3.71C16.5987 4.18333 17.551 4.82567 18.363 5.637C19.175 6.44833 19.817 7.40067 20.289 8.494C20.761 9.58733 20.998 10.756 21 12C21.002 13.244 20.7653 14.4127 20.29 15.506C19.8147 16.5993 19.1723 17.5517 18.363 18.363C17.5537 19.1743 16.6013 19.8163 15.506 20.289C14.4107 20.7617 13.242 20.9987 12 21Z" fill="#8DB9FB"/>
</svg>
