<svg width="24" height="24" viewBox="0 0 24 24" fill="none" xmlns="http://www.w3.org/2000/svg">
<g clip-path="url(#clip0_1128_645)">
<path fill-rule="evenodd" clip-rule="evenodd" d="M4 5C4 4.20435 4.31607 3.44129 4.87868 2.87868C5.44129 2.31607 6.20435 2 7 2H17C17.7956 2 18.5587 2.31607 19.1213 2.87868C19.6839 3.44129 20 4.20435 20 5V21C19.9999 21.1883 19.9466 21.3728 19.8462 21.5322C19.7459 21.6916 19.6025 21.8194 19.4327 21.9009C19.2629 21.9824 19.0736 22.0143 18.8864 21.9929C18.6993 21.9715 18.522 21.8977 18.375 21.78L16.5 20.28L14.625 21.78C14.4329 21.9339 14.1908 22.0115 13.945 21.9981C13.6993 21.9846 13.4671 21.881 13.293 21.707L12 20.414L10.707 21.707C10.533 21.8811 10.3009 21.9849 10.0551 21.9986C9.80938 22.0122 9.56721 21.9348 9.375 21.781L7.5 20.28L5.625 21.78C5.47797 21.8977 5.30069 21.9715 5.11356 21.9929C4.92643 22.0143 4.73707 21.9824 4.56727 21.9009C4.39747 21.8194 4.25414 21.6916 4.15378 21.5322C4.05342 21.3728 4.00012 21.1883 4 21V5ZM7 4C6.73478 4 6.48043 4.10536 6.29289 4.29289C6.10536 4.48043 6 4.73478 6 5V18.92L6.875 18.22C7.05236 18.078 7.27279 18.0006 7.5 18.0006C7.72721 18.0006 7.94764 18.078 8.125 18.22L9.925 19.66L11.293 18.293C11.4805 18.1055 11.7348 18.0002 12 18.0002C12.2652 18.0002 12.5195 18.1055 12.707 18.293L14.074 19.66L15.875 18.22C16.0524 18.078 16.2728 18.0006 16.5 18.0006C16.7272 18.0006 16.9476 18.078 17.125 18.22L18 18.92V5C18 4.73478 17.8946 4.48043 17.7071 4.29289C17.5196 4.10536 17.2652 4 17 4H7ZM8 9C8 8.73478 8.10536 8.48043 8.29289 8.29289C8.48043 8.10536 8.73478 8 9 8H15C15.2652 8 15.5196 8.10536 15.7071 8.29289C15.8946 8.48043 16 8.73478 16 9C16 9.26522 15.8946 9.51957 15.7071 9.70711C15.5196 9.89464 15.2652 10 15 10H9C8.73478 10 8.48043 9.89464 8.29289 9.70711C8.10536 9.51957 8 9.26522 8 9ZM9 12C8.73478 12 8.48043 12.1054 8.29289 12.2929C8.10536 12.4804 8 12.7348 8 13C8 13.2652 8.10536 13.5196 8.29289 13.7071C8.48043 13.8946 8.73478 14 9 14H12C12.2652 14 12.5196 13.8946 12.7071 13.7071C12.8946 13.5196 13 13.2652 13 13C13 12.7348 12.8946 12.4804 12.7071 12.2929C12.5196 12.1054 12.2652 12 12 12H9Z" fill="#ACF6ED"/>
</g>
<defs>
<clipPath id="clip0_1128_645">
<rect width="24" height="24" fill="white"/>
</clipPath>
</defs>
</svg>
