<svg width="24" height="24" viewBox="0 0 24 24" fill="none" xmlns="http://www.w3.org/2000/svg">
<path fill-rule="evenodd" clip-rule="evenodd" d="M3.75 8C3.75 6.74022 4.25045 5.53204 5.14124 4.64124C6.03204 3.75045 7.24022 3.25 8.5 3.25H18.5C19.466 3.25 20.25 4.034 20.25 5V20C20.25 20.4641 20.0656 20.9092 19.7374 21.2374C19.4092 21.5656 18.9641 21.75 18.5 21.75H7.5C6.50544 21.75 5.55161 21.3549 4.84835 20.6517C4.14509 19.9484 3.75 18.9946 3.75 18V8ZM18.75 5V14.25H7.5C6.656 14.25 5.877 14.529 5.25 15V8C5.25 7.13805 5.59241 6.3114 6.2019 5.7019C6.8114 5.09241 7.63805 4.75 8.5 4.75H11.708C11.4444 6.73305 11.4683 8.74378 11.779 10.72L11.842 11.117C11.8639 11.2562 11.9246 11.3864 12.0171 11.4927C12.1097 11.599 12.2303 11.6771 12.3651 11.718C12.5 11.7589 12.6436 11.761 12.7796 11.7241C12.9156 11.6871 13.0384 11.6126 13.134 11.509L14.5 10.029L15.866 11.509C15.9616 11.6126 16.0844 11.6871 16.2204 11.7241C16.3564 11.761 16.5 11.7589 16.6349 11.718C16.7697 11.6771 16.8903 11.599 16.9829 11.4927C17.0754 11.3864 17.1361 11.2562 17.158 11.117L17.221 10.72C17.5318 8.74378 17.5557 6.73305 17.292 4.75H18.5C18.5663 4.75 18.6299 4.77634 18.6768 4.82322C18.7237 4.87011 18.75 4.9337 18.75 5ZM15.778 4.75H13.222C13.005 6.26367 12.9688 7.79777 13.114 9.32L13.765 8.614C13.8586 8.5125 13.9723 8.43149 14.0988 8.37608C14.2253 8.32067 14.3619 8.29207 14.5 8.29207C14.6381 8.29207 14.7747 8.32067 14.9012 8.37608C15.0277 8.43149 15.1414 8.5125 15.235 8.614L15.886 9.32C16.0312 7.79777 15.995 6.26367 15.778 4.75ZM7.5 15.75H18.75V20C18.75 20.0663 18.7237 20.1299 18.6768 20.1768C18.6299 20.2237 18.5663 20.25 18.5 20.25H7.5C6.90326 20.25 6.33097 20.0129 5.90901 19.591C5.48705 19.169 5.25 18.5967 5.25 18C5.25 17.4033 5.48705 16.831 5.90901 16.409C6.33097 15.9871 6.90326 15.75 7.5 15.75Z" fill="#FC973A"/>
</svg>
