<svg width="24" height="24" viewBox="0 0 24 24" fill="none" xmlns="http://www.w3.org/2000/svg">
<path d="M9.99874 3.19998C8.43445 3.56262 6.99566 4.33718 5.83162 5.44332C4.66758 6.54946 3.82068 7.94689 3.37877 9.49066C2.93686 11.0344 2.91602 12.6683 3.31843 14.2229C3.72084 15.7774 4.53183 17.196 5.66729 18.3314C6.80275 19.4669 8.22132 20.2779 9.77586 20.6803C11.3304 21.0827 12.9643 21.0619 14.5081 20.62C16.0518 20.178 17.4493 19.3311 18.5554 18.1671C19.6615 17.0031 20.4361 15.5643 20.7987 14C20.7987 13.7348 20.6934 13.4804 20.5058 13.2929C20.3183 13.1053 20.064 13 19.7987 13H12.9987C12.4683 13 11.9596 12.7893 11.5845 12.4142C11.2095 12.0391 10.9987 11.5304 10.9987 11V3.99998C10.9863 3.88151 10.9505 3.76668 10.8934 3.66215C10.8362 3.55763 10.7589 3.46548 10.6659 3.39107C10.5729 3.31665 10.466 3.26144 10.3515 3.22864C10.2369 3.19584 10.1171 3.1861 9.99874 3.19998Z" stroke="currentColor" stroke-width="2" stroke-linecap="round" stroke-linejoin="round"/>
<path d="M15 3.5C16.2697 3.94708 17.423 4.6733 18.3748 5.62516C19.3267 6.57702 20.0529 7.73028 20.5 9H16C15.7348 9 15.4804 8.89464 15.2929 8.70711C15.1054 8.51957 15 8.26522 15 8V3.5Z" stroke="currentColor" stroke-width="2" stroke-linecap="round" stroke-linejoin="round"/>
</svg>
