<svg width="24" height="24" viewBox="0 0 24 24" fill="none" xmlns="http://www.w3.org/2000/svg">
<g clip-path="url(#clip0_1128_653)">
<path d="M15.7646 4C16.3216 4.00002 16.8677 4.15513 17.3415 4.44797C17.8154 4.7408 18.1984 5.15979 18.4476 5.658L19.8306 8.423C20.0746 8.323 20.3176 8.222 20.5536 8.105C20.7909 7.98645 21.0657 7.96705 21.3173 8.05106C21.569 8.13508 21.777 8.31563 21.8956 8.553C22.0141 8.79037 22.0335 9.06511 21.9495 9.31678C21.8655 9.56846 21.6849 9.77645 21.4476 9.895C20.9536 10.141 20.7276 10.217 20.7276 10.217L21.6836 12.13C21.8926 12.547 22.0006 13.006 22.0006 13.472V16C22.0012 16.4222 21.9124 16.8397 21.74 17.2251C21.5677 17.6105 21.3157 17.955 21.0006 18.236V19.5C21.0006 19.8978 20.8425 20.2794 20.5612 20.5607C20.2799 20.842 19.8984 21 19.5006 21C19.1027 21 18.7212 20.842 18.4399 20.5607C18.1586 20.2794 18.0006 19.8978 18.0006 19.5V19H6.00056V19.5C6.00056 19.8978 5.84253 20.2794 5.56122 20.5607C5.27992 20.842 4.89839 21 4.50056 21C4.10274 21 3.72121 20.842 3.4399 20.5607C3.1586 20.2794 3.00056 19.8978 3.00056 19.5V18.236C2.38656 17.686 2.00056 16.888 2.00056 16V13.472C2.00075 13.0065 2.10928 12.5473 2.31756 12.131L3.27356 10.217C3.03135 10.1166 2.79193 10.0095 2.55556 9.896C2.43769 9.83752 2.33252 9.75635 2.24608 9.65715C2.15963 9.55795 2.09362 9.44266 2.05181 9.3179C2.01001 9.19314 1.99324 9.06135 2.00246 8.93009C2.01168 8.79884 2.04672 8.67069 2.10556 8.553C2.22673 8.31687 2.4359 8.13785 2.68791 8.05459C2.93992 7.97134 3.21457 7.99052 3.45256 8.108C3.68756 8.222 3.92856 8.325 4.17056 8.423L5.55356 5.658C5.80275 5.15979 6.18573 4.7408 6.6596 4.44797C7.13347 4.15513 7.67951 4.00002 8.23656 4H15.7646ZM18.8346 10.904C17.1346 11.441 14.7156 12 12.0006 12C9.28556 12 6.86656 11.44 5.16656 10.904L4.10656 13.024C4.03687 13.1631 4.00057 13.3165 4.00056 13.472V16C4.00056 16.2652 4.10592 16.5196 4.29345 16.7071C4.48099 16.8946 4.73534 17 5.00056 17H19.0006C19.2658 17 19.5201 16.8946 19.7077 16.7071C19.8952 16.5196 20.0006 16.2652 20.0006 16V13.472C20.0004 13.3168 19.9641 13.1638 19.8946 13.025L18.8346 10.904ZM7.50056 13C7.89839 13 8.27992 13.158 8.56122 13.4393C8.84253 13.7206 9.00056 14.1022 9.00056 14.5C9.00056 14.8978 8.84253 15.2794 8.56122 15.5607C8.27992 15.842 7.89839 16 7.50056 16C7.10274 16 6.72121 15.842 6.4399 15.5607C6.1586 15.2794 6.00056 14.8978 6.00056 14.5C6.00056 14.1022 6.1586 13.7206 6.4399 13.4393C6.72121 13.158 7.10274 13 7.50056 13ZM16.5006 13C16.8984 13 17.2799 13.158 17.5612 13.4393C17.8425 13.7206 18.0006 14.1022 18.0006 14.5C18.0006 14.8978 17.8425 15.2794 17.5612 15.5607C17.2799 15.842 16.8984 16 16.5006 16C16.1027 16 15.7212 15.842 15.4399 15.5607C15.1586 15.2794 15.0006 14.8978 15.0006 14.5C15.0006 14.1022 15.1586 13.7206 15.4399 13.4393C15.7212 13.158 16.1027 13 16.5006 13ZM15.7646 6H8.23656C8.0509 6.0001 7.86893 6.05188 7.71104 6.14955C7.55314 6.24722 7.42555 6.38692 7.34256 6.553L6.07256 9.09C7.62056 9.555 9.70656 10 12.0006 10C14.2946 10 16.3806 9.555 17.9276 9.09L16.6586 6.553C16.5756 6.38692 16.448 6.24722 16.2901 6.14955C16.1322 6.05188 15.9502 6.0001 15.7646 6Z" fill="#DD3636"/>
</g>
<defs>
<clipPath id="clip0_1128_653">
<rect width="24" height="24" fill="white"/>
</clipPath>
</defs>
</svg>
