<svg width="24" height="24" viewBox="0 0 24 24" fill="none" xmlns="http://www.w3.org/2000/svg">
<path d="M12 9C12 8 12.714 7 14.143 7C14.9007 7 15.6274 6.699 16.1632 6.1632C16.699 5.62741 17 4.90072 17 4.143V3.5M8 9V8.5C8 7.70435 8.31607 6.94129 8.87868 6.37868C9.44129 5.81607 10.2044 5.5 11 5.5C11.5304 5.5 12.0391 5.28929 12.4142 4.91421C12.7893 4.53914 13 4.03043 13 3.5V3M17 11.6V15C17 16.5913 16.3679 18.1174 15.2426 19.2426C14.1174 20.3679 12.5913 21 11 21H9C7.4087 21 5.88258 20.3679 4.75736 19.2426C3.63214 18.1174 3 16.5913 3 15V11.6C3 11.4409 3.06321 11.2883 3.17574 11.1757C3.28826 11.0632 3.44087 11 3.6 11H16.4C16.5591 11 16.7117 11.0632 16.8243 11.1757C16.9368 11.2883 17 11.4409 17 11.6Z" stroke="#7F4626" stroke-width="1.5" stroke-linecap="round" stroke-linejoin="round"/>
<path d="M16 11H18.5C19.163 11 19.7989 11.2634 20.2678 11.7322C20.7366 12.2011 21 12.837 21 13.5C21 14.163 20.7366 14.7989 20.2678 15.2678C19.7989 15.7366 19.163 16 18.5 16H17" stroke="#7F4626" stroke-width="1.5" stroke-linecap="round" stroke-linejoin="round"/>
</svg>
