<svg width="30" height="30" viewBox="0 0 30 30" fill="none" xmlns="http://www.w3.org/2000/svg">
<g clip-path="url(#clip0_159_863)">
<path fill-rule="evenodd" clip-rule="evenodd" d="M25.5614 9.51845C25.8642 10.6484 25.9414 11.827 25.7887 12.9868C25.636 14.1467 25.2564 15.2651 24.6714 16.2782C24.0865 17.2913 23.3078 18.1793 22.3797 18.8915C21.4516 19.6037 20.3923 20.126 19.2623 20.4288C18.1323 20.7316 16.9537 20.8089 15.7939 20.6562C14.634 20.5035 13.5156 20.1238 12.5025 19.5389C11.4894 18.954 10.6014 18.1752 9.88923 17.2471C9.17707 16.319 8.65468 15.2597 8.3519 14.1297C7.74041 11.8476 8.06053 9.41603 9.24184 7.36994C10.4232 5.32384 12.3689 3.83083 14.651 3.21934C16.9331 2.60784 19.3647 2.92797 21.4108 4.10928C23.4569 5.29059 24.9499 7.23633 25.5614 9.51845ZM15.2164 5.32621C15.5458 5.23796 15.8968 5.28416 16.1921 5.45466C16.4874 5.62515 16.7029 5.90598 16.7911 6.23535L16.9318 6.76026C17.4381 6.74621 17.9399 6.85915 18.3914 7.08878C18.8429 7.31841 19.2298 7.65742 19.5167 8.07489C19.7097 8.35618 19.7831 8.70264 19.7207 9.03805C19.6583 9.37345 19.4652 9.67033 19.1839 9.86338C18.9026 10.0564 18.5562 10.1298 18.2208 10.0674C17.8854 10.005 17.5885 9.81194 17.3954 9.53065C17.3415 9.45188 17.2644 9.39186 17.1748 9.35893C17.0852 9.32601 16.9875 9.32182 16.8954 9.34695L15.5906 9.69657C15.5256 9.71423 15.4694 9.75518 15.4326 9.81163C15.3959 9.86808 15.3812 9.93608 15.3914 10.0027C15.4015 10.0692 15.4358 10.1298 15.4877 10.1727C15.5397 10.2156 15.6055 10.2379 15.6729 10.2354L17.7778 10.1363C18.4638 10.105 19.1401 10.3073 19.6962 10.7102C20.2523 11.113 20.6553 11.6926 20.8393 12.3541C21.0234 13.0157 20.9776 13.7201 20.7095 14.3523C20.4414 14.9844 19.9667 15.507 19.3632 15.8344L19.5038 16.3594C19.5921 16.6887 19.5459 17.0397 19.3754 17.335C19.2049 17.6303 18.9241 17.8458 18.5947 17.934C18.2653 18.0223 17.9144 17.9761 17.6191 17.8056C17.3238 17.6351 17.1083 17.3543 17.02 17.0249L16.8794 16.5C16.3731 16.5136 15.8714 16.4004 15.42 16.1708C14.9686 15.9412 14.5817 15.6025 14.2945 15.1853C14.1988 15.0462 14.1315 14.8896 14.0963 14.7244C14.0612 14.5593 14.0589 14.3888 14.0897 14.2228C14.1518 13.8874 14.3445 13.5905 14.6255 13.3973C14.9066 13.2041 15.2528 13.1304 15.5881 13.1925C15.9235 13.2546 16.2204 13.4474 16.4136 13.7284C16.4677 13.8072 16.5448 13.8673 16.6344 13.9004C16.724 13.9336 16.8217 13.9383 16.914 13.9137L18.04 13.612C18.1488 13.5812 18.2425 13.5116 18.3035 13.4163C18.3645 13.3211 18.3885 13.2069 18.371 13.0952C18.3535 12.9835 18.2957 12.882 18.2086 12.81C18.1214 12.738 18.0109 12.7003 17.8979 12.7042L15.793 12.8032C15.1366 12.8335 14.49 12.6358 13.9629 12.2435C13.4357 11.8513 13.0606 11.2887 12.9011 10.6513C12.7416 10.0139 12.8076 9.34097 13.0878 8.74669C13.3681 8.1524 13.8454 7.67341 14.4386 7.39102L14.3073 6.90088C14.2636 6.7378 14.2524 6.5677 14.2745 6.4003C14.2965 6.2329 14.3513 6.07148 14.4357 5.92526C14.5202 5.77904 14.6326 5.65088 14.7665 5.54809C14.9005 5.44531 15.0533 5.36991 15.2164 5.32621ZM19.8175 22.4976C20.3573 22.353 20.8782 22.1708 21.3756 21.9541C20.8549 23.0725 20.1075 24.0706 19.1808 24.885C18.2541 25.6995 17.1683 26.3125 15.9923 26.6854C14.8162 27.0582 13.5756 27.1826 12.3489 27.0508C11.1223 26.919 9.93636 26.5338 8.86637 25.9196C7.79638 25.3055 6.86564 24.4758 6.13313 23.483C5.40062 22.4903 4.88233 21.3562 4.61109 20.1527C4.33985 18.9492 4.32158 17.7024 4.55744 16.4914C4.79331 15.2805 5.27815 14.1317 5.98126 13.1179C6.16689 14.6928 6.68931 16.2093 7.51301 17.5643C8.33671 18.9193 9.44241 20.0812 10.755 20.971C12.0676 21.8608 13.5563 22.4577 15.12 22.7211C16.6837 22.9845 18.2858 22.9083 19.8175 22.4976Z" fill="currentColor"/>
</g>
<defs>
<clipPath id="clip0_159_863">
<rect width="24" height="24" fill="white" transform="translate(0.282608 6.51472) rotate(-15)"/>
</clipPath>
</defs>
</svg>
