<svg width="24" height="24" viewBox="0 0 24 24" fill="none" xmlns="http://www.w3.org/2000/svg">
<path fill-rule="evenodd" clip-rule="evenodd" d="M7.75 5.61811C7.74999 5.31978 7.67371 5.0264 7.52842 4.76585C7.38312 4.50529 7.17362 4.28621 6.91983 4.1294C6.66603 3.97259 6.37636 3.88327 6.07833 3.86992C5.7803 3.85657 5.4838 3.91962 5.217 4.0531L3.217 5.0531C2.92642 5.19848 2.68206 5.42188 2.51127 5.69829C2.34048 5.97469 2.25001 6.29319 2.25 6.6181V10.2501H2C1.80109 10.2501 1.61032 10.3291 1.46967 10.4698C1.32902 10.6104 1.25 10.8012 1.25 11.0001V17.0001C1.25 17.9947 1.64509 18.9485 2.34835 19.6518C3.05161 20.355 4.00544 20.7501 5 20.7501C5.99456 20.7501 6.94839 20.355 7.65165 19.6518C8.35491 18.9485 8.75 17.9947 8.75 17.0001V11.0001C8.75 10.8012 8.67098 10.6104 8.53033 10.4698C8.38968 10.3291 8.19891 10.2501 8 10.2501H7.75V5.61811ZM2.75 11.7501H7.25V17.0001C7.25 17.2956 7.1918 17.5882 7.07873 17.8611C6.96566 18.1341 6.79992 18.3822 6.59099 18.5911C6.38206 18.8 6.13402 18.9658 5.86104 19.0788C5.58806 19.1919 5.29547 19.2501 5 19.2501C4.70453 19.2501 4.41194 19.1919 4.13896 19.0788C3.86598 18.9658 3.61794 18.8 3.40901 18.5911C3.20008 18.3822 3.03434 18.1341 2.92127 17.8611C2.8082 17.5882 2.75 17.2956 2.75 17.0001V11.7501ZM6.25 10.2501V5.61811C6.25008 5.57543 6.23924 5.53345 6.21851 5.49615C6.19777 5.45885 6.16784 5.42748 6.13155 5.40502C6.09526 5.38257 6.05383 5.36977 6.0112 5.36786C5.96856 5.36595 5.92615 5.37499 5.888 5.39411L3.888 6.3941C3.84645 6.41493 3.81153 6.44692 3.78715 6.48648C3.76277 6.52605 3.74991 6.57163 3.75 6.6181V10.2501H6.25ZM16.5 4.2501C14.9072 4.24976 13.3744 4.85756 12.2146 5.94934C11.0548 7.04112 10.3557 8.53451 10.2599 10.1244C10.1642 11.7144 10.6791 13.2808 11.6995 14.5039C12.7198 15.727 14.1687 16.5143 15.75 16.7051V19.2501H13.5C13.3011 19.2501 13.1103 19.3291 12.9697 19.4698C12.829 19.6104 12.75 19.8012 12.75 20.0001C12.75 20.199 12.829 20.3898 12.9697 20.5304C13.1103 20.6711 13.3011 20.7501 13.5 20.7501H19.5C19.6989 20.7501 19.8897 20.6711 20.0303 20.5304C20.171 20.3898 20.25 20.199 20.25 20.0001C20.25 19.8012 20.171 19.6104 20.0303 19.4698C19.8897 19.3291 19.6989 19.2501 19.5 19.2501H17.25V16.7051C18.8283 16.5105 20.2731 15.7217 21.2902 14.4993C22.3073 13.2768 22.8203 11.7127 22.7247 10.1254C22.6292 8.53799 21.9322 7.04673 20.7757 5.95519C19.6192 4.86365 18.0902 4.25391 16.5 4.2501ZM16.5 15.2501C17.1238 15.2501 17.7415 15.1272 18.3177 14.8885C18.894 14.6498 19.4177 14.2999 19.8588 13.8589C20.2998 13.4178 20.6497 12.8941 20.8884 12.3179C21.1271 11.7416 21.25 11.1239 21.25 10.5001C21.25 9.87633 21.1271 9.25866 20.8884 8.68236C20.6497 8.10606 20.2998 7.58243 19.8588 7.14135C19.4177 6.70027 18.894 6.35039 18.3177 6.11168C17.7415 5.87297 17.1238 5.75011 16.5 5.75011C15.2402 5.75011 14.032 6.25055 13.1412 7.14135C12.2504 8.03215 11.75 9.24033 11.75 10.5001C11.75 11.7599 12.2504 12.9681 13.1412 13.8589C14.032 14.7497 15.2402 15.2501 16.5 15.2501Z" fill="#E1849F"/>
</svg>
