<svg width="24" height="24" viewBox="0 0 24 24" fill="none" xmlns="http://www.w3.org/2000/svg">
<path d="M22 11.429V18C22 18.5304 21.7893 19.0391 21.4142 19.4142C21.0391 19.7893 20.5304 20 20 20H7C6.46957 20 5.96086 19.7893 5.58579 19.4142C5.21071 19.0391 5 18.5304 5 18V16.5M22 11.429V10C22 9.46957 21.7893 8.96086 21.4142 8.58579C21.0391 8.21071 20.5304 8 20 8H19M22 11.429H19" stroke="currentColor" stroke-width="1.5" stroke-linecap="round" stroke-linejoin="round"/>
<path d="M19 8V14.5C19 15.0304 18.7893 15.5391 18.4142 15.9142C18.0391 16.2893 17.5304 16.5 17 16.5H4C3.46957 16.5 2.96086 16.2893 2.58579 15.9142C2.21071 15.5391 2 15.0304 2 14.5V6.5C2 5.96957 2.21071 5.46086 2.58579 5.08579C2.96086 4.71071 3.46957 4.5 4 4.5H17C17.5304 4.5 18.0391 4.71071 18.4142 5.08579C18.7893 5.46086 19 5.96957 19 6.5V8ZM19 8H5.5" stroke="currentColor" stroke-width="1.5" stroke-linecap="round" stroke-linejoin="round"/>
</svg>
