<svg width="24" height="24" viewBox="0 0 24 24" fill="none" xmlns="http://www.w3.org/2000/svg">
<g clip-path="url(#clip0_1128_687)">
<path d="M20.1274 19.6594C20.1246 19.6513 20.1211 19.6435 20.1171 19.6359L15.8534 10.5553L17.7752 7.53844C17.779 7.53303 17.7825 7.52739 17.7855 7.52156C17.9254 7.28848 17.9992 7.02179 17.9992 6.75C17.9992 6.47821 17.9254 6.21152 17.7855 5.97844C17.7771 5.96344 17.7668 5.94844 17.7574 5.93437L15.7493 3.06563V0.75C15.7493 0.551088 15.6703 0.360322 15.5296 0.21967C15.389 0.0790176 15.1982 0 14.9993 0C14.8004 0 14.6096 0.0790176 14.469 0.21967C14.3283 0.360322 14.2493 0.551088 14.2493 0.75V3.03937L13.7562 3.65625C13.5454 3.91971 13.278 4.13239 12.9739 4.27855C12.6698 4.4247 12.3367 4.50059 11.9993 4.50059C11.6619 4.50059 11.3288 4.4247 11.0247 4.27855C10.7206 4.13239 10.4532 3.91971 10.2424 3.65625L9.7493 3.03937V0.75C9.7493 0.551088 9.67028 0.360322 9.52963 0.21967C9.38898 0.0790176 9.19821 0 8.9993 0C8.80039 0 8.60962 0.0790176 8.46897 0.21967C8.32832 0.360322 8.2493 0.551088 8.2493 0.75V3.06563L6.24117 5.93437C6.2318 5.94844 6.22149 5.96344 6.21305 5.97844C6.07324 6.21152 5.9994 6.47821 5.9994 6.75C5.9994 7.02179 6.07324 7.28848 6.21305 7.52156C6.21614 7.52739 6.21959 7.53303 6.22336 7.53844L8.14524 10.5553L3.88149 19.6359C3.87749 19.6435 3.87404 19.6513 3.87117 19.6594C3.77347 19.8875 3.73388 20.1362 3.75594 20.3834C3.77801 20.6306 3.86105 20.8684 3.99762 21.0756C4.13419 21.2827 4.32003 21.4528 4.53847 21.5705C4.75692 21.6882 5.00116 21.7499 5.2493 21.75H18.7493C18.9975 21.75 19.2419 21.6885 19.4604 21.5708C19.679 21.4532 19.865 21.2832 20.0017 21.076C20.1383 20.8687 20.2215 20.6309 20.2436 20.3836C20.2657 20.1364 20.2261 19.8875 20.1284 19.6594H20.1274ZM7.4993 6.75L9.03961 4.55344L9.07055 4.59281C9.42186 5.03214 9.86751 5.38681 10.3745 5.63054C10.8815 5.87427 11.4368 6.00082 11.9993 6.00082C12.5618 6.00082 13.1171 5.87427 13.6241 5.63054C14.1311 5.38681 14.5767 5.03214 14.928 4.59281L14.959 4.55344L16.4993 6.75L14.5887 9.75H9.41086L7.4993 6.75ZM5.2493 20.25L9.47461 11.25H14.5221L18.7493 20.25H5.2493Z" fill="#FB67A5"/>
</g>
<defs>
<clipPath id="clip0_1128_687">
<rect width="24" height="24" fill="white"/>
</clipPath>
</defs>
</svg>
