<svg width="24" height="24" viewBox="0 0 24 24" fill="none" xmlns="http://www.w3.org/2000/svg">
<path d="M8 12C10.7615 12 13 9.7615 13 7C13 4.2385 10.7615 2 8 2C5.2385 2 3 4.2385 3 7C3 9.7615 5.2385 12 8 12Z" stroke="#8C56FF" stroke-width="2" stroke-linejoin="round"/>
<path d="M12.9992 7.60107C13.0062 7.60807 15.3607 10.5691 20.0622 16.4831C20.1418 16.5789 20.1828 16.7011 20.177 16.8256C20.1713 16.9501 20.1193 17.0679 20.0312 17.1561L17.9892 19.1981C17.901 19.2862 17.7832 19.3382 17.6587 19.3439C17.5342 19.3497 17.412 19.3087 17.3162 19.2291L8.91016 12.0001M13.2342 12.2351L14.6487 13.6496" stroke="#8C56FF" stroke-width="2" stroke-linecap="round" stroke-linejoin="round"/>
<path d="M8.5 22.0431C9.4585 20.7941 10.6235 20.1696 11.995 20.1696C14.053 20.1696 16.4815 22.7546 18.553 22.3991C20.625 22.0431 21.218 20.0001 19.943 18.8691" stroke="#8C56FF" stroke-width="2" stroke-linecap="round" stroke-linejoin="round"/>
</svg>
