<svg width="24" height="24" viewBox="0 0 24 24" fill="none" xmlns="http://www.w3.org/2000/svg">
<path d="M4 20V11C3.45 11 2.97933 10.8043 2.588 10.413C2.19667 10.0217 2.00067 9.55067 2 9V7C2 6.45 2.196 5.97933 2.588 5.588C2.98 5.19667 3.45067 5.00067 4 5H7.2C7.11667 4.85 7.06267 4.69167 7.038 4.525C7.01333 4.35833 7.00067 4.18333 7 4C7 3.16667 7.29167 2.45833 7.875 1.875C8.45833 1.29167 9.16667 1 10 1C10.3833 1 10.7417 1.071 11.075 1.213C11.4083 1.355 11.7167 1.55067 12 1.8C12.2833 1.53333 12.5917 1.33333 12.925 1.2C13.2583 1.06667 13.6167 1 14 1C14.8333 1 15.5417 1.29167 16.125 1.875C16.7083 2.45833 17 3.16667 17 4C17 4.18333 16.9833 4.35433 16.95 4.513C16.9167 4.67167 16.8667 4.834 16.8 5H20C20.55 5 21.021 5.196 21.413 5.588C21.805 5.98 22.0007 6.45067 22 7V9C22 9.55 21.8043 10.021 21.413 10.413C21.0217 10.805 20.5507 11.0007 20 11V20C20 20.55 19.8043 21.021 19.413 21.413C19.0217 21.805 18.5507 22.0007 18 22H6C5.45 22 4.97933 21.8043 4.588 21.413C4.19667 21.0217 4.00067 20.5507 4 20ZM14 3C13.7167 3 13.4793 3.096 13.288 3.288C13.0967 3.48 13.0007 3.71733 13 4C12.9993 4.28267 13.0953 4.52033 13.288 4.713C13.4807 4.90567 13.718 5.00133 14 5C14.282 4.99867 14.5197 4.90267 14.713 4.712C14.9063 4.52133 15.002 4.284 15 4C14.998 3.716 14.902 3.47867 14.712 3.288C14.522 3.09733 14.2847 3.00133 14 3ZM9 4C9 4.28333 9.096 4.521 9.288 4.713C9.48 4.905 9.71733 5.00067 10 5C10.2827 4.99933 10.5203 4.90333 10.713 4.712C10.9057 4.52067 11.0013 4.28333 11 4C10.9987 3.71667 10.9027 3.47933 10.712 3.288C10.5213 3.09667 10.284 3.00067 10 3C9.716 2.99933 9.47867 3.09533 9.288 3.288C9.09733 3.48067 9.00133 3.718 9 4ZM4 7V9H11V7H4ZM11 20V11H6V20H11ZM13 20H18V11H13V20ZM20 9V7H13V9H20Z" fill="#B1F060"/>
</svg>
