<svg width="24" height="24" viewBox="0 0 24 24" fill="none" xmlns="http://www.w3.org/2000/svg">
<path d="M21.48 13.3734C21.2232 13.1756 20.9242 13.0399 20.6062 12.9768C20.2883 12.9137 19.9601 12.925 19.6472 13.0097L15.4059 13.9847C15.545 13.6158 15.5925 13.2187 15.5443 12.8275C15.4962 12.4362 15.3539 12.0625 15.1297 11.7383C14.9054 11.4141 14.6058 11.1491 14.2567 10.9661C13.9075 10.7831 13.5192 10.6875 13.125 10.6875H8.43188C8.06239 10.6864 7.69638 10.7587 7.35505 10.9002C7.01372 11.0417 6.70386 11.2495 6.44344 11.5116L4.2675 13.6875H1.5C1.1519 13.6875 0.818064 13.8258 0.571922 14.0719C0.325781 14.3181 0.1875 14.6519 0.1875 15V18.75C0.1875 19.0981 0.325781 19.4319 0.571922 19.6781C0.818064 19.9242 1.1519 20.0625 1.5 20.0625H11.25C11.2961 20.0625 11.3421 20.0568 11.3869 20.0456L17.3869 18.5456C17.4153 18.5381 17.4431 18.5287 17.4703 18.5175L21.1097 16.9688L21.1406 16.9547C21.4624 16.794 21.738 16.554 21.9414 16.2574C22.1448 15.9608 22.2694 15.6172 22.3033 15.2592C22.3373 14.9011 22.2795 14.5403 22.1355 14.2107C21.9914 13.8811 21.7658 13.5936 21.48 13.3753V13.3734ZM1.3125 18.75V15C1.3125 14.9503 1.33225 14.9026 1.36742 14.8674C1.40258 14.8323 1.45027 14.8125 1.5 14.8125H3.9375V18.9375H1.5C1.45027 18.9375 1.40258 18.9177 1.36742 18.8826C1.33225 18.8474 1.3125 18.7997 1.3125 18.75ZM20.6512 15.9375L17.07 17.4628L11.1806 18.9375H5.0625V14.4834L7.23844 12.3066C7.3948 12.1494 7.5808 12.0248 7.78566 11.94C7.99051 11.8552 8.21016 11.8118 8.43188 11.8125H13.125C13.4731 11.8125 13.8069 11.9508 14.0531 12.1969C14.2992 12.4431 14.4375 12.7769 14.4375 13.125C14.4375 13.4731 14.2992 13.8069 14.0531 14.0531C13.8069 14.2992 13.4731 14.4375 13.125 14.4375H10.5C10.3508 14.4375 10.2077 14.4968 10.1023 14.6023C9.99676 14.7077 9.9375 14.8508 9.9375 15C9.9375 15.1492 9.99676 15.2923 10.1023 15.3977C10.2077 15.5032 10.3508 15.5625 10.5 15.5625H13.5C13.5423 15.5625 13.5844 15.5578 13.6256 15.5484L19.9069 14.1038L19.9294 14.0981C20.1658 14.0337 20.4177 14.0588 20.6367 14.1688C20.8557 14.2787 21.0263 14.4657 21.1158 14.6938C21.2053 14.9219 21.2074 15.1751 21.1217 15.4046C21.0359 15.6342 20.8684 15.824 20.6512 15.9375ZM15.375 8.8125C15.6044 8.81237 15.8332 8.78786 16.0575 8.73938C16.2262 9.33849 16.5666 9.8751 17.0367 10.283C17.5069 10.6909 18.0861 10.9522 18.703 11.0348C19.32 11.1173 19.9475 11.0174 20.5083 10.7474C21.0691 10.4774 21.5386 10.0492 21.8589 9.51545C22.1791 8.98175 22.3361 8.36597 22.3105 7.74408C22.2848 7.1222 22.0777 6.52143 21.7146 6.01591C21.3515 5.51038 20.8483 5.12222 20.2672 4.89932C19.6861 4.67642 19.0524 4.62853 18.4444 4.76156C18.2837 4.19055 17.9668 3.67569 17.5295 3.27494C17.0921 2.87418 16.5516 2.60341 15.9688 2.4931C15.3859 2.38279 14.7839 2.43731 14.2303 2.65053C13.6768 2.86375 13.1937 3.22721 12.8355 3.70001C12.4772 4.17282 12.258 4.73621 12.2025 5.3268C12.147 5.9174 12.2574 6.51176 12.5213 7.04303C12.7852 7.57429 13.1921 8.02137 13.6963 8.33398C14.2004 8.64658 14.7818 8.81231 15.375 8.8125ZM21.1875 7.875C21.1875 8.28292 21.0665 8.68169 20.8399 9.02086C20.6133 9.36004 20.2912 9.6244 19.9143 9.7805C19.5374 9.93661 19.1227 9.97745 18.7226 9.89787C18.3225 9.81829 17.955 9.62185 17.6666 9.33341C17.3781 9.04496 17.1817 8.67746 17.1021 8.27737C17.0225 7.87729 17.0634 7.46259 17.2195 7.08572C17.3756 6.70884 17.64 6.38673 17.9791 6.16009C18.3183 5.93346 18.7171 5.8125 19.125 5.8125C19.672 5.8125 20.1966 6.0298 20.5834 6.41659C20.9702 6.80339 21.1875 7.32799 21.1875 7.875ZM15.375 3.5625C15.8485 3.56194 16.3077 3.72476 16.6751 4.02348C17.0425 4.3222 17.2955 4.73853 17.3916 5.20219C16.9838 5.46658 16.6419 5.8207 16.392 6.23748C16.1421 6.65426 15.9908 7.12266 15.9497 7.60688C15.6662 7.68857 15.3684 7.70847 15.0765 7.66525C14.7847 7.62202 14.5054 7.51668 14.2578 7.35632C14.0101 7.19597 13.7997 6.98434 13.6408 6.73572C13.4819 6.4871 13.3782 6.20728 13.3367 5.91515C13.2952 5.62303 13.3168 5.3254 13.4002 5.04236C13.4835 4.75931 13.6266 4.49745 13.8198 4.27445C14.0131 4.05144 14.2519 3.87249 14.5201 3.74967C14.7884 3.62685 15.0799 3.56303 15.375 3.5625Z" fill="#32DBE6"/>
</svg>
