<svg width="24" height="24" viewBox="0 0 24 24" fill="none" xmlns="http://www.w3.org/2000/svg">
<path d="M14.012 10.8291H13.012V9.82907C13.012 9.56386 12.9066 9.3095 12.7191 9.12196C12.5316 8.93443 12.2772 8.82907 12.012 8.82907C11.7468 8.82907 11.4924 8.93443 11.3049 9.12196C11.1174 9.3095 11.012 9.56386 11.012 9.82907V10.8291H10.012C9.74678 10.8291 9.49242 10.9344 9.30489 11.122C9.11735 11.3095 9.01199 11.5639 9.01199 11.8291C9.01199 12.0943 9.11735 12.3486 9.30489 12.5362C9.49242 12.7237 9.74678 12.8291 10.012 12.8291H11.012V13.8291C11.012 14.0943 11.1174 14.3486 11.3049 14.5362C11.4924 14.7237 11.7468 14.8291 12.012 14.8291C12.2772 14.8291 12.5316 14.7237 12.7191 14.5362C12.9066 14.3486 13.012 14.0943 13.012 13.8291V12.8291H14.012C14.2772 12.8291 14.5316 12.7237 14.7191 12.5362C14.9066 12.3486 15.012 12.0943 15.012 11.8291C15.012 11.5639 14.9066 11.3095 14.7191 11.122C14.5316 10.9344 14.2772 10.8291 14.012 10.8291ZM20.172 4.82907C19.1057 3.77378 17.6973 3.13434 16.201 3.02615C14.7047 2.91796 13.219 3.34814 12.012 4.23907C10.7397 3.29271 9.15599 2.86358 7.57991 3.03811C6.00384 3.21264 4.55243 3.97785 3.51797 5.17966C2.4835 6.38146 1.94282 7.93059 2.0048 9.51509C2.06677 11.0996 2.72681 12.6017 3.85199 13.7191L9.85199 19.7691C10.4145 20.3309 11.177 20.6464 11.972 20.6464C12.767 20.6464 13.5295 20.3309 14.092 19.7691L20.092 13.7191C20.6829 13.1417 21.1539 12.4533 21.4779 11.6933C21.802 10.9333 21.9726 10.1168 21.98 9.2907C21.9874 8.46458 21.8315 7.64513 21.5213 6.87945C21.211 6.11377 20.7524 5.41696 20.172 4.82907ZM18.762 12.2891L12.762 18.2891C12.669 18.3828 12.5584 18.4572 12.4366 18.508C12.3147 18.5587 12.184 18.5849 12.052 18.5849C11.92 18.5849 11.7893 18.5587 11.6674 18.508C11.5456 18.4572 11.435 18.3828 11.342 18.2891L5.34199 12.2891C4.55775 11.4874 4.1186 10.4105 4.1186 9.28907C4.1186 8.16761 4.55775 7.09073 5.34199 6.28907C6.14115 5.50006 7.21897 5.05764 8.34199 5.05764C9.46502 5.05764 10.5428 5.50006 11.342 6.28907C11.435 6.3828 11.5456 6.45719 11.6674 6.50796C11.7893 6.55873 11.92 6.58487 12.052 6.58487C12.184 6.58487 12.3147 6.55873 12.4366 6.50796C12.5584 6.45719 12.669 6.3828 12.762 6.28907C13.5611 5.50006 14.639 5.05764 15.762 5.05764C16.885 5.05764 17.9628 5.50006 18.762 6.28907C19.5523 7.09162 19.9952 8.17276 19.9952 9.29907C19.9952 10.4254 19.5523 11.5065 18.762 12.3091V12.2891Z" fill="#FD6B6B"/>
</svg>
