<svg width="34" height="34" viewBox="0 0 34 34" fill="none" xmlns="http://www.w3.org/2000/svg">
<path d="M14.5917 29.75H7.08333C6.33189 29.75 5.61122 29.4515 5.07986 28.9201C4.54851 28.3888 4.25 27.6681 4.25 26.9167V7.08333C4.25 6.33189 4.54851 5.61122 5.07986 5.07986C5.61122 4.54851 6.33189 4.25 7.08333 4.25H26.9167C27.6681 4.25 28.3888 4.54851 28.9201 5.07986C29.4515 5.61122 29.75 6.33189 29.75 7.08333V21.25L25.3583 16.8583C24.8252 16.3358 24.1075 16.0448 23.361 16.0485C22.6146 16.0523 21.8997 16.3504 21.3718 16.8782L8.5 29.75" stroke="currentColor" stroke-width="2" stroke-linecap="round" stroke-linejoin="round"/>
<path d="M19.832 26.9167L24.082 31.1667M24.082 31.1667V23.375M24.082 31.1667L28.332 26.9167" stroke="currentColor" stroke-width="2" stroke-linecap="round" stroke-linejoin="round"/>
<path d="M12.7513 15.5832C14.3161 15.5832 15.5846 14.3146 15.5846 12.7498C15.5846 11.185 14.3161 9.9165 12.7513 9.9165C11.1865 9.9165 9.91797 11.185 9.91797 12.7498C9.91797 14.3146 11.1865 15.5832 12.7513 15.5832Z" stroke="currentColor" stroke-width="2" stroke-linecap="round" stroke-linejoin="round"/>
</svg>
