<svg width="24" height="24" viewBox="0 0 24 24" fill="none" xmlns="http://www.w3.org/2000/svg">
<path d="M10.3 21H5C4.46957 21 3.96086 20.7893 3.58579 20.4142C3.21071 20.0391 3 19.5304 3 19V5C3 4.46957 3.21071 3.96086 3.58579 3.58579C3.96086 3.21071 4.46957 3 5 3H19C19.5304 3 20.0391 3.21071 20.4142 3.58579C20.7893 3.96086 21 4.46957 21 5V15L17.9 11.9C17.5237 11.5312 17.017 11.3258 16.4901 11.3284C15.9632 11.331 15.4586 11.5415 15.086 11.914L6 21" stroke="currentColor" stroke-width="2" stroke-linecap="round" stroke-linejoin="round"/>
<path d="M9 11C10.1046 11 11 10.1046 11 9C11 7.89543 10.1046 7 9 7C7.89543 7 7 7.89543 7 9C7 10.1046 7.89543 11 9 11Z" stroke="currentColor" stroke-width="2" stroke-linecap="round" stroke-linejoin="round"/>
<path fill-rule="evenodd" clip-rule="evenodd" d="M19.25 20.75C20.0784 20.75 20.75 20.0784 20.75 19.25V14.25C20.75 14.1119 20.8619 14 21 14V14C21.1381 14 21.25 14.1119 21.25 14.25V19.75C21.25 20.5784 20.5784 21.25 19.75 21.25H8.75C8.61193 21.25 8.5 21.1381 8.5 21V21C8.5 20.8619 8.61193 20.75 8.75 20.75H19.25Z" fill="currentColor" stroke="currentColor" stroke-width="1.5"/>
</svg>
