<svg width="24" height="24" viewBox="0 0 24 24" fill="none" xmlns="http://www.w3.org/2000/svg">
<path d="M23.6017 13.967C23.4274 13.7923 23.2087 13.6684 22.9693 13.6086C22.7298 13.5487 22.4786 13.5552 22.2425 13.6273C20.5935 14.125 18.8404 14.1662 17.1698 13.7465C15.4993 13.3268 13.9739 12.4619 12.7561 11.2439C11.5384 10.026 10.6739 8.50059 10.2547 6.83025C9.83555 5.15991 9.87742 3.40718 10.3759 1.75875C10.4486 1.52265 10.4555 1.2712 10.396 1.03144C10.3365 0.791682 10.2127 0.572684 10.038 0.398002C9.86323 0.223319 9.64418 0.0995611 9.40437 0.0400365C9.16456 -0.0194881 8.91305 -0.0125267 8.6769 0.060172C6.19686 0.822262 4.02048 2.34709 2.45757 4.41759C1.09082 6.23382 0.257339 8.3949 0.0506621 10.6583C-0.156015 12.9218 0.272286 15.198 1.28751 17.2316C2.30273 19.2653 3.86469 20.9758 5.79814 22.1714C7.7316 23.3669 9.96003 24.0001 12.2334 23.9999C14.8876 24.0077 17.471 23.1449 19.5876 21.5438C21.6575 19.9797 23.1811 17.8026 23.9415 15.3225C24.0129 15.087 24.0191 14.8365 23.9592 14.5977C23.8994 14.359 23.7758 14.141 23.6017 13.967ZM17.9521 19.373C16.12 20.7519 13.8515 21.4228 11.564 21.2624C9.27647 21.1019 7.12387 20.1208 5.50237 18.4997C3.88087 16.8785 2.89957 14.7264 2.73907 12.4394C2.57856 10.1524 3.24966 7.88439 4.62884 6.05276C5.35456 5.09302 6.25396 4.27794 7.28035 3.64984C7.25996 3.93973 7.24977 4.23075 7.24977 4.52291C7.25337 7.76534 8.5433 10.8739 10.8366 13.1667C13.1298 15.4594 16.2391 16.7491 19.4823 16.7527C19.7745 16.7527 20.0656 16.7425 20.3556 16.7221C19.7276 17.7485 18.9123 18.6477 17.9521 19.373Z" fill="#28208C"/>
</svg>
