<svg width="24" height="24" viewBox="0 0 24 24" fill="none" xmlns="http://www.w3.org/2000/svg">
<path d="M9.5 22C8.51667 22 7.68733 21.6627 7.012 20.988C6.33667 20.3133 5.99933 19.484 6 18.5C6 18.35 6.021 18.2333 6.063 18.15C6.105 18.0667 6.10067 18 6.05 17.95C5.99933 17.9 5.93267 17.896 5.85 17.938C5.76733 17.98 5.65067 18.0007 5.5 18C4.51667 18 3.68733 17.6627 3.012 16.988C2.33667 16.3133 1.99933 15.484 2 14.5C2.00067 13.516 2.33833 12.6867 3.013 12.012C3.68767 11.3373 4.51667 11 5.5 11C5.88333 11 6.23333 11.05 6.55 11.15C6.86667 11.25 7.16667 11.4 7.45 11.6L11.6 7.45C11.4 7.16667 11.25 6.86667 11.15 6.55C11.05 6.23333 11 5.88333 11 5.5C11 4.51667 11.3377 3.68733 12.013 3.012C12.6883 2.33667 13.5173 1.99933 14.5 2C15.4827 2.00067 16.312 2.33833 16.988 3.013C17.664 3.68767 18.0013 4.51667 18 5.5C18 5.65 17.9793 5.76667 17.938 5.85C17.8967 5.93333 17.9007 6 17.95 6.05C17.9993 6.1 18.066 6.10433 18.15 6.063C18.234 6.02167 18.3507 6.00067 18.5 6C19.4833 6 20.3127 6.33767 20.988 7.013C21.6633 7.68833 22.0007 8.51733 22 9.5C21.9993 10.4827 21.662 11.312 20.988 11.988C20.314 12.664 19.4847 13.0013 18.5 13C18.1167 13 17.7667 12.95 17.45 12.85C17.1333 12.75 16.8333 12.6 16.55 12.4L12.4 16.55C12.6 16.8333 12.75 17.1333 12.85 17.45C12.95 17.7667 13 18.1167 13 18.5C13 19.4833 12.6627 20.3127 11.988 20.988C11.3133 21.6633 10.484 22.0007 9.5 22ZM9.5 20C9.93333 20 10.2917 19.8583 10.575 19.575C10.8583 19.2917 11 18.9333 11 18.5C11 18.35 10.9793 18.2043 10.938 18.063C10.8967 17.9217 10.834 17.784 10.75 17.65C10.4667 17.25 10.35 16.821 10.4 16.363C10.45 15.905 10.65 15.5007 11 15.15L15.15 11C15.5 10.65 15.9043 10.45 16.363 10.4C16.8217 10.35 17.2507 10.4667 17.65 10.75C17.7833 10.8333 17.921 10.896 18.063 10.938C18.205 10.98 18.3507 11.0007 18.5 11C18.9333 11 19.2917 10.8583 19.575 10.575C19.8583 10.2917 20 9.93333 20 9.5C20 9.06667 19.8583 8.70833 19.575 8.425C19.2917 8.14167 18.9333 8 18.5 8C17.9167 8 17.5083 7.97067 17.275 7.912C17.0417 7.85333 16.8 7.69933 16.55 7.45C16.3 7.20067 16.146 6.959 16.088 6.725C16.03 6.491 16.0007 6.08267 16 5.5C16 5.06667 15.8583 4.70833 15.575 4.425C15.2917 4.14167 14.9333 4 14.5 4C14.0667 4 13.7083 4.14167 13.425 4.425C13.1417 4.70833 13 5.06667 13 5.5C13 5.68333 13.0167 5.83767 13.05 5.963C13.0833 6.08833 13.15 6.21733 13.25 6.35C13.5333 6.75 13.65 7.17933 13.6 7.638C13.55 8.09667 13.35 8.50067 13 8.85L8.85 13C8.5 13.35 8.09567 13.55 7.637 13.6C7.17833 13.65 6.74933 13.5333 6.35 13.25C6.21667 13.1667 6.07933 13.1043 5.938 13.063C5.79667 13.0217 5.65067 13.0007 5.5 13C5.06667 13 4.70833 13.1417 4.425 13.425C4.14167 13.7083 4 14.0667 4 14.5C4 14.9333 4.14167 15.2917 4.425 15.575C4.70833 15.8583 5.06667 16 5.5 16C6.08333 16 6.49167 16.0293 6.725 16.088C6.95833 16.1467 7.2 16.3007 7.45 16.55C7.7 16.7993 7.854 17.041 7.912 17.275C7.97 17.509 7.99933 17.9173 8 18.5C8 18.9333 8.14167 19.2917 8.425 19.575C8.70833 19.8583 9.06667 20 9.5 20Z" fill="#726FFE"/>
</svg>
