<svg width="24" height="24" viewBox="0 0 24 24" fill="none" xmlns="http://www.w3.org/2000/svg">
<g clip-path="url(#clip0_1128_733)">
<path d="M16.8113 7.26829C16.691 6.92742 16.468 6.63224 16.1729 6.42346C15.8778 6.21467 15.5253 6.10256 15.1638 6.10258H13.8095C13.4262 6.10461 13.057 6.24771 12.7725 6.50458C12.488 6.76144 12.3079 7.11408 12.2668 7.4952C12.2257 7.87633 12.3263 8.25925 12.5495 8.5709C12.7728 8.88255 13.1029 9.1011 13.477 9.18486L15.5375 9.63572C15.958 9.72858 16.3295 9.97334 16.5807 10.3231C16.8319 10.6729 16.9452 11.103 16.8989 11.5311C16.8526 11.9593 16.65 12.3553 16.3298 12.6432C16.0096 12.9312 15.5944 13.0909 15.1638 13.0917H13.9981C13.6367 13.0915 13.2843 12.9793 12.9892 12.7705C12.6942 12.5618 12.4711 12.2667 12.3507 11.926M14.581 6.10258V4.354M14.581 14.8386V13.09" stroke="#44D549" stroke-width="1.71429" stroke-linecap="round" stroke-linejoin="round"/>
<path d="M2.06226 10.5153C1.21514 12.076 0.885488 13.8653 1.12083 15.6254C1.35618 17.3855 2.14437 19.0254 3.37176 20.3086C4.59916 21.5919 6.20235 22.4523 7.95022 22.7657C9.69808 23.0791 11.5003 22.8293 13.0971 22.0525M6.1954 9.59649C6.1954 11.8202 7.07877 13.9529 8.65119 15.5253C10.2236 17.0977 12.3562 17.9811 14.58 17.9811C16.8037 17.9811 18.9363 17.0977 20.5088 15.5253C22.0812 13.9529 22.9645 11.8202 22.9645 9.59649C22.9645 7.37276 22.0812 5.24011 20.5088 3.6677C18.9363 2.09529 16.8037 1.21191 14.58 1.21191C12.3562 1.21191 10.2236 2.09529 8.65119 3.6677C7.07877 5.24011 6.1954 7.37276 6.1954 9.59649Z" stroke="#44D549" stroke-width="1.71429" stroke-linecap="round" stroke-linejoin="round"/>
</g>
<defs>
<clipPath id="clip0_1128_733">
<rect width="24" height="24" fill="white"/>
</clipPath>
</defs>
</svg>
