<svg width="24" height="24" viewBox="0 0 24 24" fill="none" xmlns="http://www.w3.org/2000/svg">
<g clip-path="url(#clip0_1128_725)">
<path d="M12 2C17.523 2 22 6.477 22 12C22 17.523 17.523 22 12 22C6.477 22 2 17.523 2 12C2 6.477 6.477 2 12 2ZM12 4C9.87827 4 7.84344 4.84285 6.34315 6.34315C4.84285 7.84344 4 9.87827 4 12C4 14.1217 4.84285 16.1566 6.34315 17.6569C7.84344 19.1571 9.87827 20 12 20C14.1217 20 16.1566 19.1571 17.6569 17.6569C19.1571 16.1566 20 14.1217 20 12C20 9.87827 19.1571 7.84344 17.6569 6.34315C16.1566 4.84285 14.1217 4 12 4ZM7.728 14.111C9.146 13.785 10.663 13.789 11.975 13.992C13.251 14.19 14.489 14.602 15.252 15.226C15.4499 15.3867 15.5789 15.6169 15.6127 15.8695C15.6465 16.1222 15.5826 16.3782 15.434 16.5853C15.2854 16.7924 15.0633 16.9349 14.8131 16.9837C14.563 17.0325 14.3036 16.984 14.088 16.848L13.986 16.775C13.63 16.483 12.808 16.145 11.668 15.969C10.563 15.797 9.306 15.801 8.176 16.06C8.04734 16.0914 7.91373 16.0969 7.78292 16.0762C7.65212 16.0555 7.52672 16.009 7.41402 15.9395C7.30132 15.8699 7.20355 15.7787 7.1264 15.6711C7.04924 15.5634 6.99424 15.4415 6.96457 15.3125C6.9349 15.1834 6.93117 15.0497 6.95358 14.9192C6.97599 14.7887 7.02411 14.6639 7.09513 14.5521C7.16615 14.4404 7.25867 14.3438 7.36731 14.2681C7.47595 14.1924 7.59855 14.139 7.728 14.111ZM7.208 11.38C10.467 10.471 14.258 10.985 16.571 12.405C16.7971 12.5438 16.9588 12.7668 17.0205 13.0249C17.0822 13.2829 17.0388 13.5549 16.9 13.781C16.7612 14.0071 16.5382 14.1688 16.2801 14.2305C16.0221 14.2922 15.7501 14.2488 15.524 14.11C13.741 13.015 10.534 12.529 7.744 13.306C7.61625 13.3455 7.48188 13.359 7.34884 13.3456C7.21579 13.3323 7.08677 13.2924 6.96941 13.2283C6.85205 13.1642 6.74874 13.0773 6.66558 12.9726C6.58241 12.8679 6.52109 12.7475 6.48524 12.6187C6.44939 12.4899 6.43974 12.3552 6.45686 12.2226C6.47398 12.09 6.51752 11.9622 6.5849 11.8467C6.65229 11.7312 6.74215 11.6304 6.84918 11.5502C6.9562 11.4701 7.07822 11.4122 7.208 11.38ZM6.73 8.514C10.49 7.464 14.226 8.009 17.396 9.378C17.6374 9.48454 17.8268 9.68215 17.9232 9.92778C18.0195 10.1734 18.0148 10.4471 17.9102 10.6893C17.8056 10.9316 17.6095 11.1226 17.3646 11.2209C17.1198 11.3191 16.846 11.3167 16.603 11.214C13.773 9.991 10.509 9.536 7.268 10.44C7.14079 10.4778 7.00733 10.4899 6.8754 10.4756C6.74347 10.4613 6.6157 10.4209 6.49955 10.3567C6.3834 10.2925 6.28118 10.2059 6.19886 10.1018C6.11653 9.9977 6.05575 9.87827 6.02004 9.75046C5.98434 9.62264 5.97444 9.48901 5.9909 9.35733C6.00737 9.22565 6.04988 9.09856 6.11596 8.98348C6.18204 8.8684 6.27037 8.76762 6.37579 8.68701C6.48121 8.60641 6.60162 8.5476 6.73 8.514Z" fill="#4DE065"/>
</g>
<defs>
<clipPath id="clip0_1128_725">
<rect width="24" height="24" fill="white"/>
</clipPath>
</defs>
</svg>
