<svg width="24" height="24" viewBox="0 0 24 24" fill="none" xmlns="http://www.w3.org/2000/svg">
<path d="M10.8387 2.70968V1.16129C10.8387 0.853297 10.9611 0.557918 11.1788 0.340134C11.3966 0.12235 11.692 0 12 0C12.308 0 12.6034 0.12235 12.8212 0.340134C13.0389 0.557918 13.1613 0.853297 13.1613 1.16129V2.70968C13.1613 3.01767 13.0389 3.31305 12.8212 3.53083C12.6034 3.74862 12.308 3.87097 12 3.87097C11.692 3.87097 11.3966 3.74862 11.1788 3.53083C10.9611 3.31305 10.8387 3.01767 10.8387 2.70968ZM18.5806 12C18.5806 13.3015 18.1947 14.5738 17.4716 15.656C16.7485 16.7382 15.7208 17.5816 14.5183 18.0797C13.3158 18.5778 11.9927 18.7081 10.7162 18.4542C9.43966 18.2003 8.2671 17.5735 7.34678 16.6532C6.42646 15.7329 5.79972 14.5603 5.5458 13.2838C5.29188 12.0073 5.4222 10.6842 5.92028 9.4817C6.41835 8.27924 7.26181 7.25148 8.34399 6.52839C9.42617 5.8053 10.6985 5.41935 12 5.41935C13.7447 5.42115 15.4175 6.11504 16.6512 7.34876C17.885 8.58248 18.5789 10.2553 18.5806 12ZM16.2581 12C16.2581 11.1578 16.0083 10.3346 15.5405 9.63435C15.0726 8.93411 14.4075 8.38834 13.6295 8.06606C12.8514 7.74378 11.9953 7.65945 11.1693 7.82375C10.3433 7.98805 9.58459 8.39359 8.98909 8.98909C8.39359 9.58459 7.98805 10.3433 7.82375 11.1693C7.65945 11.9953 7.74378 12.8514 8.06606 13.6295C8.38834 14.4075 8.93411 15.0726 9.63435 15.5405C10.3346 16.0083 11.1578 16.2581 12 16.2581C13.1289 16.2568 14.2112 15.8078 15.0095 15.0095C15.8078 14.2112 16.2568 13.1289 16.2581 12ZM4.59774 6.24097C4.70576 6.34899 4.83401 6.43468 4.97514 6.49314C5.11628 6.5516 5.26755 6.58169 5.42032 6.58169C5.57309 6.58169 5.72436 6.5516 5.8655 6.49314C6.00664 6.43468 6.13488 6.34899 6.2429 6.24097C6.35093 6.13294 6.43661 6.0047 6.49508 5.86356C6.55354 5.72243 6.58363 5.57115 6.58363 5.41839C6.58363 5.26562 6.55354 5.11435 6.49508 4.97321C6.43661 4.83207 6.35093 4.70383 6.2429 4.59581L5.08161 3.43452C4.86345 3.21635 4.56756 3.09379 4.25903 3.09379C3.9505 3.09379 3.65461 3.21635 3.43645 3.43452C3.21829 3.65268 3.09573 3.94857 3.09573 4.2571C3.09573 4.56562 3.21829 4.86152 3.43645 5.07968L4.59774 6.24097ZM4.59774 17.7571L3.43645 18.9184C3.32843 19.0264 3.24274 19.1547 3.18428 19.2958C3.12582 19.4369 3.09573 19.5882 3.09573 19.741C3.09573 19.8937 3.12582 20.045 3.18428 20.1861C3.24274 20.3273 3.32843 20.4555 3.43645 20.5635C3.65461 20.7817 3.9505 20.9043 4.25903 20.9043C4.4118 20.9043 4.56307 20.8742 4.70421 20.8157C4.84535 20.7573 4.97359 20.6716 5.08161 20.5635L6.2429 19.4023C6.46107 19.1841 6.58363 18.8882 6.58363 18.5797C6.58363 18.2712 6.46107 17.9753 6.2429 17.7571C6.02474 17.5389 5.72885 17.4164 5.42032 17.4164C5.11179 17.4164 4.8159 17.5389 4.59774 17.7571ZM18.5806 6.58065C18.7332 6.58076 18.8843 6.55083 19.0252 6.49255C19.1662 6.43426 19.2943 6.34877 19.4023 6.24097L20.5635 5.07968C20.6716 4.97165 20.7573 4.84341 20.8157 4.70227C20.8742 4.56114 20.9043 4.40986 20.9043 4.2571C20.9043 4.10433 20.8742 3.95306 20.8157 3.81192C20.7573 3.67078 20.6716 3.54254 20.5635 3.43452C20.4555 3.32649 20.3273 3.2408 20.1861 3.18234C20.045 3.12388 19.8937 3.09379 19.741 3.09379C19.5882 3.09379 19.4369 3.12388 19.2958 3.18234C19.1547 3.2408 19.0264 3.32649 18.9184 3.43452L17.7571 4.59581C17.5937 4.75823 17.4823 4.96558 17.4371 5.19148C17.3919 5.41738 17.4149 5.65163 17.5032 5.86442C17.5915 6.07721 17.7411 6.25893 17.933 6.38647C18.1248 6.51401 18.3503 6.5816 18.5806 6.58065ZM19.4023 17.759C19.1841 17.5409 18.8882 17.4183 18.5797 17.4183C18.2712 17.4183 17.9753 17.5409 17.7571 17.759C17.5389 17.9772 17.4164 18.2731 17.4164 18.5816C17.4164 18.8901 17.5389 19.186 17.7571 19.4042L18.9184 20.5655C19.1365 20.7836 19.4324 20.9062 19.741 20.9062C20.0495 20.9062 20.3454 20.7836 20.5635 20.5655C20.7817 20.3473 20.9043 20.0514 20.9043 19.7429C20.9043 19.4344 20.7817 19.1385 20.5635 18.9203L19.4023 17.759ZM3.87097 12C3.87097 11.692 3.74862 11.3966 3.53083 11.1788C3.31305 10.9611 3.01767 10.8387 2.70968 10.8387H1.16129C0.853297 10.8387 0.557918 10.9611 0.340134 11.1788C0.12235 11.3966 0 11.692 0 12C0 12.308 0.12235 12.6034 0.340134 12.8212C0.557918 13.0389 0.853297 13.1613 1.16129 13.1613H2.70968C3.01767 13.1613 3.31305 13.0389 3.53083 12.8212C3.74862 12.6034 3.87097 12.308 3.87097 12ZM12 20.129C11.692 20.129 11.3966 20.2514 11.1788 20.4692C10.9611 20.687 10.8387 20.9823 10.8387 21.2903V22.8387C10.8387 23.1467 10.9611 23.4421 11.1788 23.6599C11.3966 23.8776 11.692 24 12 24C12.308 24 12.6034 23.8776 12.8212 23.6599C13.0389 23.4421 13.1613 23.1467 13.1613 22.8387V21.2903C13.1613 20.9823 13.0389 20.687 12.8212 20.4692C12.6034 20.2514 12.308 20.129 12 20.129ZM22.8387 10.8387H21.2903C20.9823 10.8387 20.687 10.9611 20.4692 11.1788C20.2514 11.3966 20.129 11.692 20.129 12C20.129 12.308 20.2514 12.6034 20.4692 12.8212C20.687 13.0389 20.9823 13.1613 21.2903 13.1613H22.8387C23.1467 13.1613 23.4421 13.0389 23.6599 12.8212C23.8776 12.6034 24 12.308 24 12C24 11.692 23.8776 11.3966 23.6599 11.1788C23.4421 10.9611 23.1467 10.8387 22.8387 10.8387Z" fill="#FCD116"/>
</svg>
