<svg width="24" height="24" viewBox="0 0 24 24" fill="none" xmlns="http://www.w3.org/2000/svg">
<path d="M8 22.0002C7.45 22.0002 6.97933 21.8045 6.588 21.4132C6.19667 21.0219 6.00067 20.5509 6 20.0002V15.7002C6 14.4669 6.175 13.2795 6.525 12.1382C6.875 10.9969 7.425 9.85922 8.175 8.72522C7.54167 8.57522 7.021 8.23355 6.613 7.70022C6.205 7.16688 6.00067 6.56688 6 5.90022V4.85022C6 4.05022 6.346 3.37955 7.038 2.83822C7.73 2.29688 8.45067 2.06755 9.2 2.15022L18.1 3.02522C18.3833 3.05855 18.6043 3.17122 18.763 3.36322C18.9217 3.55522 19.0007 3.77588 19 4.02522V7.00022C19 7.25022 18.9127 7.47122 18.738 7.66322C18.5633 7.85522 18.3507 7.96755 18.1 8.00022L17.2 8.10022C17.3833 8.71688 17.6 9.28355 17.85 9.80022C18.1 10.3169 18.4 10.7585 18.75 11.1252C18.9333 11.3252 19.0543 11.5585 19.113 11.8252C19.1717 12.0919 19.134 12.3419 19 12.5752C18.866 12.8085 18.6703 12.9669 18.413 13.0502C18.1557 13.1336 17.9263 13.0835 17.725 12.9002C17.0917 12.3502 16.5873 11.6792 16.212 10.8872C15.8367 10.0952 15.5327 9.22488 15.3 8.27622L14.2 8.37622C14.3333 9.20955 14.5877 10.0512 14.963 10.9012C15.3383 11.7512 15.7173 12.5179 16.1 13.2012C16.4 13.7346 16.625 14.2929 16.775 14.8762C16.925 15.4596 17 16.0509 17 16.6502V20.0002C17 20.5502 16.8043 21.0212 16.413 21.4132C16.0217 21.8052 15.5507 22.0009 15 22.0002H8ZM8 5.10022V5.90022C8 6.20022 8.10833 6.44188 8.325 6.62522C8.54167 6.80855 8.8 6.88355 9.1 6.85022L17 6.10022V4.90022L9.1 4.15022C8.8 4.11688 8.54167 4.19188 8.325 4.37522C8.10833 4.55855 8 4.80022 8 5.10022ZM8 20.0002H15V16.6502C15 16.2169 14.946 15.7919 14.838 15.3752C14.73 14.9585 14.5673 14.5586 14.35 14.1752C13.8333 13.2752 13.3833 12.3462 13 11.3882C12.6167 10.4302 12.35 9.49255 12.2 8.57522L10.7 8.70022L10.05 9.55022C9.38333 10.4336 8.875 11.4046 8.525 12.4632C8.175 13.5219 8 14.6009 8 15.7002V20.0002Z" fill="#F4C8AD"/>
</svg>
