<svg width="24" height="24" viewBox="0 0 24 24" fill="none" xmlns="http://www.w3.org/2000/svg">
<path d="M10.1958 5.34184L5.35078 10.1878C4.78056 10.7411 4.32605 11.4022 4.01371 12.1327C3.70137 12.8633 3.53742 13.6486 3.53142 14.4431C3.52542 15.2376 3.67747 16.0253 3.97874 16.7605C4.28001 17.4956 4.72447 18.1636 5.28627 18.7254C5.84806 19.2871 6.51598 19.7316 7.25114 20.0329C7.98631 20.3341 8.77405 20.4862 9.56853 20.4802C10.363 20.4742 11.1484 20.3102 11.8789 19.9979C12.6094 19.6856 13.2705 19.2311 13.8238 18.6608L18.6688 13.8158C19.7731 12.6882 20.3879 11.1705 20.3797 9.59223C20.3715 8.01397 19.7409 6.50269 18.625 5.38661C17.5091 4.27054 15.9978 3.63982 14.4196 3.63143C12.8413 3.62305 11.3235 4.23768 10.1958 5.34184Z" stroke="#32FFE6" stroke-width="1.5" stroke-linecap="round" stroke-linejoin="round"/>
<path d="M16.8441 15.6388C14.9108 14.9182 13.1782 13.7451 11.7911 12.2178C10.2641 10.8306 9.09142 9.09793 8.37109 7.16476M12.0041 7.16476C12.242 6.92502 12.525 6.73475 12.8367 6.6049C13.1485 6.47505 13.4829 6.4082 13.8206 6.4082C14.1583 6.4082 14.4927 6.47505 14.8045 6.6049C15.1162 6.73475 15.3992 6.92502 15.6371 7.16476" stroke="#32FFE6" stroke-width="1.5" stroke-linecap="round" stroke-linejoin="round"/>
</svg>
