<svg width="24" height="24" viewBox="0 0 24 24" fill="none" xmlns="http://www.w3.org/2000/svg">
<path d="M6.84921 17.1498L4.34921 15.7748C4.16588 15.6748 4.06188 15.5291 4.03721 15.3378C4.01254 15.1465 4.06654 14.9838 4.19921 14.8498L4.49921 14.5498C4.56588 14.4831 4.64521 14.4375 4.73721 14.4128C4.82921 14.3881 4.91654 14.3838 4.99921 14.3998L7.19921 14.6998L11.0992 10.7998L4.29921 7.0998C4.04921 6.96647 3.90354 6.75814 3.86221 6.4748C3.82088 6.19147 3.89988 5.9498 4.09921 5.7498L4.34921 5.4998C4.46588 5.38314 4.59521 5.30814 4.73721 5.2748C4.87921 5.24147 5.02488 5.24147 5.17421 5.2748L14.2492 7.5998L18.1742 3.7248C18.4575 3.44147 18.8119 3.2998 19.2372 3.2998C19.6625 3.2998 20.0165 3.44147 20.2992 3.7248C20.5819 4.00814 20.7235 4.36247 20.7242 4.7878C20.7249 5.21314 20.5832 5.56714 20.2992 5.8498L16.3992 9.7498L18.7242 18.7748C18.7575 18.9415 18.7535 19.1041 18.7122 19.2628C18.6709 19.4215 18.5915 19.5588 18.4742 19.6748L18.3492 19.7998C18.1159 20.0331 17.8452 20.1248 17.5372 20.0748C17.2292 20.0248 16.9999 19.8581 16.8492 19.5748L13.1992 12.8998L9.29921 16.7998L9.59921 18.9498C9.61588 19.0665 9.60754 19.1748 9.57421 19.2748C9.54088 19.3748 9.48254 19.4665 9.39921 19.5498L9.27421 19.6748C9.10754 19.8415 8.90754 19.9121 8.67421 19.8868C8.44088 19.8615 8.26588 19.7408 8.14921 19.5248L6.84921 17.1498Z" fill="#76B5FF"/>
</svg>
