<svg width="24" height="24" viewBox="0 0 24 24" fill="none" xmlns="http://www.w3.org/2000/svg">
<g clip-path="url(#clip0_1343_645)">
<path d="M12 3C10.22 3 8.47991 3.52784 6.99987 4.51677C5.51983 5.50571 4.36628 6.91131 3.68509 8.55585C3.0039 10.2004 2.82567 12.01 3.17294 13.7558C3.5202 15.5016 4.37737 17.1053 5.63604 18.364C6.89472 19.6226 8.49836 20.4798 10.2442 20.8271C11.99 21.1743 13.7996 20.9961 15.4442 20.3149C17.0887 19.6337 18.4943 18.4802 19.4832 17.0001C20.4722 15.5201 21 13.78 21 12C21 9.61305 20.0518 7.32387 18.364 5.63604C16.6761 3.94821 14.3869 3 12 3ZM10.8825 7.5C10.8825 7.20163 11.001 6.91548 11.212 6.7045C11.423 6.49353 11.7091 6.375 12.0075 6.375C12.3059 6.375 12.592 6.49353 12.803 6.7045C13.014 6.91548 13.1325 7.20163 13.1325 7.5V12.6675C13.1325 12.8152 13.1034 12.9615 13.0469 13.098C12.9903 13.2345 12.9075 13.3585 12.803 13.463C12.6985 13.5675 12.5745 13.6503 12.438 13.7069C12.3015 13.7634 12.1552 13.7925 12.0075 13.7925C11.8598 13.7925 11.7135 13.7634 11.577 13.7069C11.4405 13.6503 11.3165 13.5675 11.212 13.463C11.1075 13.3585 11.0247 13.2345 10.9681 13.098C10.9116 12.9615 10.8825 12.8152 10.8825 12.6675V7.5ZM12 17.625C11.7449 17.625 11.4955 17.5493 11.2833 17.4076C11.0712 17.2658 10.9058 17.0644 10.8082 16.8287C10.7106 16.5929 10.685 16.3336 10.7348 16.0833C10.7846 15.8331 10.9074 15.6032 11.0878 15.4228C11.2682 15.2424 11.4981 15.1196 11.7483 15.0698C11.9986 15.02 12.2579 15.0456 12.4937 15.1432C12.7294 15.2408 12.9309 15.4062 13.0726 15.6183C13.2143 15.8305 13.29 16.0799 13.29 16.335C13.29 16.6771 13.1541 17.0052 12.9122 17.2472C12.6702 17.4891 12.3421 17.625 12 17.625Z" fill="currentColor"/>
</g>
<defs>
<clipPath id="clip0_1343_645">
<rect width="24" height="24" fill="white"/>
</clipPath>
</defs>
</svg>
